<?xml version="1.0" encoding="utf-8"?>
<svg version="1.1" id="logo" x="0px" y="0px" viewBox="0 0 1024 1024" style="enable-background:new 0 0 1024 1024;" xmlns="http://www.w3.org/2000/svg">
  <style type="text/css">
	.st0{opacity:0.8;fill:#5CBBF6;}
	.st1{fill:url(#SVGID_1_);}
</style>
  <circle class="st0" cx="512" cy="512" r="480"/>
  <linearGradient id="SVGID_1_" gradientUnits="userSpaceOnUse" x1="-510.8271" y1="910.3636" x2="-509.9521" y2="910.3636" gradientTransform="matrix(914.285706, 0, 0, -8.9375, 467153.96875, 8648.375)">
    <stop offset="0" style="stop-color:#FF0000"/>
    <stop offset="0.125" style="stop-color:#FF8000"/>
    <stop offset="0.25" style="stop-color:#FFFF00"/>
    <stop offset="0.375" style="stop-color:#80FF00"/>
    <stop offset="0.5" style="stop-color:#00FF00"/>
    <stop offset="0.625" style="stop-color:#00F044"/>
    <stop offset="0.75" style="stop-color:#00A0A8"/>
    <stop offset="0.875" style="stop-color:#0000FF"/>
    <stop offset="1" style="stop-color:#FF00FF"/>
  </linearGradient>
  <path class="st1" d="M 712 642 C 654.232 642 623.071 581.306 592 522.806 C 567.536 477.306 543.071 429.613 512 429.613 C 480.929 429.613 456.464 477.306 432 522.806 C 400.929 581.306 369.768 642 312 642 C 252 642 225.304 577 203.071 520.694 C 180.839 464.388 163.071 427.5 134.232 427.5 C 120.929 427.5 112 416.694 112 403.694 C 112 392.888 120.929 382 134.232 382 C 194.232 382 220.929 447 243.161 503.306 C 265.393 559.613 283.071 596.5 312 596.5 C 343.071 596.5 367.536 548.806 392 503.306 C 423.071 442.694 454.232 382 512 382 C 569.768 382 600.929 442.694 632 501.194 C 656.464 546.694 680.929 594.388 712 594.388 C 740.929 594.388 756.464 557.581 780.929 501.194 C 803.071 447 832 382 889.768 382 C 903.071 382 912 392.806 912 405.806 C 912 418.806 903.071 429.613 889.768 429.613 C 860.839 429.613 845.304 466.419 820.839 522.806 C 798.696 577 769.768 642 712 642 Z"/>
</svg>