<?xml version="1.0" encoding="utf-8"?>
<!-- Generator: Adobe Illustrator 27.5.0, SVG Export Plug-In . SVG Version: 6.00 Build 0)  -->
<svg version="1.1" id="logo"
  xmlns="http://www.w3.org/2000/svg"
  xmlns:xlink="http://www.w3.org/1999/xlink" x="0px" y="0px" viewBox="0 0 36 36" style="enable-background:new 0 0 36 36;" xml:space="preserve">
  <style type="text/css">
	.st0{fill:url(#SVGID_1_);}
  </style>
  <linearGradient id="SVGID_1_" gradientUnits="userSpaceOnUse" x1="-914.8611" y1="511.0909" x2="-913.8611" y2="511.0909" gradientTransform="matrix(36 0 0 -11 32935 5640)">
    <stop offset="0" style="stop-color:#FF0000"/>
    <stop offset="0.125" style="stop-color:#FF8000"/>
    <stop offset="0.25" style="stop-color:#FFFF00"/>
    <stop offset="0.375" style="stop-color:#80FF00"/>
    <stop offset="0.5" style="stop-color:#00FF00"/>
    <stop offset="0.625" style="stop-color:#00F044"/>
    <stop offset="0.75" style="stop-color:#00A0A8"/>
    <stop offset="0.875" style="stop-color:#0000FF"/>
    <stop offset="1" style="stop-color:#FF00FF"/>
  </linearGradient>
  <path class="st0" d="M27,24c-2.6,0-4-2.8-5.4-5.5c-1.1-2.1-2.2-4.3-3.6-4.3c-1.4,0-2.5,2.2-3.6,4.3C13,21.2,11.6,24,9,24
	c-2.7,0-3.9-3-4.9-5.6c-1-2.6-1.8-4.3-3.1-4.3c-0.6,0-1-0.5-1-1.1C0,12.5,0.4,12,1,12c2.7,0,3.9,3,4.9,5.6c1,2.6,1.8,4.3,3.1,4.3
	c1.4,0,2.5-2.2,3.6-4.3C14,14.8,15.4,12,18,12c2.6,0,4,2.8,5.4,5.5c1.1,2.1,2.2,4.3,3.6,4.3c1.3,0,2-1.7,3.1-4.3
	C31.1,15,32.4,12,35,12c0.6,0,1,0.5,1,1.1c0,0.6-0.4,1.1-1,1.1c-1.3,0-2,1.7-3.1,4.3C30.9,21,29.6,24,27,24z"/>
</svg>
